<svg width="418" height="214" viewBox="0 0 418 214" fill="none" xmlns="http://www.w3.org/2000/svg">
<path d="M183.062 123.42C180.766 123.42 178.568 123.098 176.468 122.454C174.368 121.782 172.702 120.928 171.47 119.892L173.36 115.65C174.536 116.574 175.992 117.344 177.728 117.96C179.464 118.576 181.242 118.884 183.062 118.884C184.602 118.884 185.848 118.716 186.8 118.38C187.752 118.044 188.452 117.596 188.9 117.036C189.348 116.448 189.572 115.79 189.572 115.062C189.572 114.166 189.25 113.452 188.606 112.92C187.962 112.36 187.122 111.926 186.086 111.618C185.078 111.282 183.944 110.974 182.684 110.694C181.452 110.414 180.206 110.092 178.946 109.728C177.714 109.336 176.58 108.846 175.544 108.258C174.536 107.642 173.71 106.83 173.066 105.822C172.422 104.814 172.1 103.526 172.1 101.958C172.1 100.362 172.52 98.906 173.36 97.59C174.228 96.246 175.53 95.182 177.266 94.398C179.03 93.586 181.256 93.18 183.944 93.18C185.708 93.18 187.458 93.404 189.194 93.852C190.93 94.3 192.442 94.944 193.73 95.784L192.008 100.026C190.692 99.242 189.334 98.668 187.934 98.304C186.534 97.912 185.19 97.716 183.902 97.716C182.39 97.716 181.158 97.898 180.206 98.262C179.282 98.626 178.596 99.102 178.148 99.69C177.728 100.278 177.518 100.95 177.518 101.706C177.518 102.602 177.826 103.33 178.442 103.89C179.086 104.422 179.912 104.842 180.92 105.15C181.956 105.458 183.104 105.766 184.364 106.074C185.624 106.354 186.87 106.676 188.102 107.04C189.362 107.404 190.496 107.88 191.504 108.468C192.54 109.056 193.366 109.854 193.982 110.862C194.626 111.87 194.948 113.144 194.948 114.684C194.948 116.252 194.514 117.708 193.646 119.052C192.806 120.368 191.504 121.432 189.74 122.244C187.976 123.028 185.75 123.42 183.062 123.42ZM204.404 123L196.172 100.572H201.128L208.184 120.354H205.832L213.224 100.572H217.634L224.816 120.354H222.506L229.772 100.572H234.434L226.16 123H221.12L214.568 105.486H216.122L209.444 123H204.404ZM247.508 123.294C245.212 123.294 243.168 122.804 241.376 121.824C239.584 120.816 238.17 119.444 237.134 117.708C236.098 115.972 235.58 113.998 235.58 111.786C235.58 109.546 236.098 107.572 237.134 105.864C238.17 104.128 239.584 102.77 241.376 101.79C243.168 100.81 245.212 100.32 247.508 100.32C249.832 100.32 251.89 100.81 253.682 101.79C255.502 102.77 256.916 104.114 257.924 105.822C258.96 107.53 259.478 109.518 259.478 111.786C259.478 113.998 258.96 115.972 257.924 117.708C256.916 119.444 255.502 120.816 253.682 121.824C251.89 122.804 249.832 123.294 247.508 123.294ZM247.508 118.8C248.796 118.8 249.944 118.52 250.952 117.96C251.96 117.4 252.744 116.588 253.304 115.524C253.892 114.46 254.186 113.214 254.186 111.786C254.186 110.33 253.892 109.084 253.304 108.048C252.744 106.984 251.96 106.172 250.952 105.612C249.944 105.052 248.81 104.772 247.55 104.772C246.262 104.772 245.114 105.052 244.106 105.612C243.126 106.172 242.342 106.984 241.754 108.048C241.166 109.084 240.872 110.33 240.872 111.786C240.872 113.214 241.166 114.46 241.754 115.524C242.342 116.588 243.126 117.4 244.106 117.96C245.114 118.52 246.248 118.8 247.508 118.8ZM264.499 123V100.572H269.497V106.746L268.909 104.94C269.581 103.428 270.631 102.28 272.059 101.496C273.515 100.712 275.321 100.32 277.477 100.32V105.318C277.253 105.262 277.043 105.234 276.847 105.234C276.651 105.206 276.455 105.192 276.259 105.192C274.271 105.192 272.689 105.78 271.513 106.956C270.337 108.104 269.749 109.826 269.749 112.122V123H264.499ZM291.217 123.294C289.061 123.294 287.115 122.818 285.379 121.866C283.671 120.886 282.327 119.542 281.347 117.834C280.367 116.126 279.877 114.11 279.877 111.786C279.877 109.462 280.367 107.446 281.347 105.738C282.327 104.03 283.671 102.7 285.379 101.748C287.115 100.796 289.061 100.32 291.217 100.32C293.093 100.32 294.773 100.74 296.257 101.58C297.741 102.392 298.917 103.638 299.785 105.318C300.653 106.998 301.087 109.154 301.087 111.786C301.087 114.39 300.667 116.546 299.827 118.254C298.987 119.934 297.825 121.194 296.341 122.034C294.857 122.874 293.149 123.294 291.217 123.294ZM291.847 118.8C293.107 118.8 294.227 118.52 295.207 117.96C296.215 117.4 297.013 116.588 297.601 115.524C298.217 114.46 298.525 113.214 298.525 111.786C298.525 110.33 298.217 109.084 297.601 108.048C297.013 106.984 296.215 106.172 295.207 105.612C294.227 105.052 293.107 104.772 291.847 104.772C290.587 104.772 289.453 105.052 288.445 105.612C287.465 106.172 286.667 106.984 286.051 108.048C285.463 109.084 285.169 110.33 285.169 111.786C285.169 113.214 285.463 114.46 286.051 115.524C286.667 116.588 287.465 117.4 288.445 117.96C289.453 118.52 290.587 118.8 291.847 118.8ZM298.651 123V117.708L298.861 111.744L298.441 105.78V91.836H303.649V123H298.651ZM322.991 123.294C321.087 123.294 319.393 122.874 317.909 122.034C316.425 121.194 315.249 119.934 314.381 118.254C313.541 116.546 313.121 114.39 313.121 111.786C313.121 109.154 313.555 106.998 314.423 105.318C315.319 103.638 316.509 102.392 317.993 101.58C319.505 100.74 321.171 100.32 322.991 100.32C325.203 100.32 327.149 100.796 328.829 101.748C330.537 102.7 331.881 104.03 332.861 105.738C333.869 107.446 334.373 109.462 334.373 111.786C334.373 114.11 333.869 116.126 332.861 117.834C331.881 119.542 330.537 120.886 328.829 121.866C327.149 122.818 325.203 123.294 322.991 123.294ZM310.559 123V91.836H315.809V105.78L315.389 111.744L315.557 117.708V123H310.559ZM322.403 118.8C323.663 118.8 324.783 118.52 325.763 117.96C326.771 117.4 327.569 116.588 328.157 115.524C328.745 114.46 329.039 113.214 329.039 111.786C329.039 110.33 328.745 109.084 328.157 108.048C327.569 106.984 326.771 106.172 325.763 105.612C324.783 105.052 323.663 104.772 322.403 104.772C321.143 104.772 320.009 105.052 319.001 105.612C317.993 106.172 317.195 106.984 316.607 108.048C316.019 109.084 315.725 110.33 315.725 111.786C315.725 113.214 316.019 114.46 316.607 115.524C317.195 116.588 317.993 117.4 319.001 117.96C320.009 118.52 321.143 118.8 322.403 118.8ZM352.883 123V118.464L352.589 117.498V109.56C352.589 108.02 352.127 106.83 351.203 105.99C350.279 105.122 348.879 104.688 347.003 104.688C345.743 104.688 344.497 104.884 343.265 105.276C342.061 105.668 341.039 106.214 340.199 106.914L338.141 103.092C339.345 102.168 340.773 101.482 342.425 101.034C344.105 100.558 345.841 100.32 347.633 100.32C350.881 100.32 353.387 101.104 355.151 102.672C356.943 104.212 357.839 106.606 357.839 109.854V123H352.883ZM345.827 123.294C344.147 123.294 342.677 123.014 341.417 122.454C340.157 121.866 339.177 121.068 338.477 120.06C337.805 119.024 337.469 117.862 337.469 116.574C337.469 115.314 337.763 114.18 338.351 113.172C338.967 112.164 339.961 111.366 341.333 110.778C342.705 110.19 344.525 109.896 346.793 109.896H353.303V113.382H347.171C345.379 113.382 344.175 113.676 343.559 114.264C342.943 114.824 342.635 115.524 342.635 116.364C342.635 117.316 343.013 118.072 343.769 118.632C344.525 119.192 345.575 119.472 346.919 119.472C348.207 119.472 349.355 119.178 350.363 118.59C351.399 118.002 352.141 117.134 352.589 115.986L353.471 119.136C352.967 120.452 352.057 121.474 350.741 122.202C349.453 122.93 347.815 123.294 345.827 123.294ZM366.015 131.442C364.923 131.442 363.831 131.26 362.739 130.896C361.647 130.532 360.737 130.028 360.009 129.384L362.109 125.52C362.641 125.996 363.243 126.374 363.915 126.654C364.587 126.934 365.273 127.074 365.973 127.074C366.925 127.074 367.695 126.836 368.283 126.36C368.871 125.884 369.417 125.086 369.921 123.966L371.223 121.026L371.643 120.396L380.127 100.572H385.167L374.667 124.806C373.967 126.486 373.183 127.816 372.315 128.796C371.475 129.776 370.523 130.462 369.459 130.854C368.423 131.246 367.275 131.442 366.015 131.442ZM370.635 123.798L360.513 100.572H365.973L374.205 119.934L370.635 123.798Z" fill="white"/>
<path fill-rule="evenodd" clip-rule="evenodd" d="M122.549 77.4173C112.33 79.6736 104.458 87.145 101.726 97.1805C100.744 100.789 100.76 106.247 101.762 110.011C102.7 113.533 104.929 117.813 107.089 120.24C109.112 122.514 109.87 122.737 108.203 120.568C104.529 115.79 102.789 108.875 103.755 102.9C105.56 91.7349 113.773 83.761 125.077 82.1967C132.837 81.123 140.949 85.2006 144.604 92.0141C147.259 96.9618 147.298 103.743 144.699 108.486C143.499 110.677 140.593 113.552 138.254 114.864C137.204 115.452 136.392 116.071 136.449 116.239C136.723 117.038 139.235 119.831 139.678 119.828C140.451 119.823 143.303 118.09 145.027 116.577C146.939 114.899 149.594 111.015 150.565 108.474C152.643 103.038 152.455 96.4786 150.059 90.8619C147.283 84.3525 140.494 78.9875 133.071 77.4362C130.325 76.8624 125.105 76.8533 122.549 77.4173ZM128.151 85.1335C127.542 85.7381 127.492 86.2245 127.492 91.4815C127.492 96.3713 127.419 97.203 126.971 97.3736C126.684 97.4829 124.853 97.5723 122.903 97.5723C118.923 97.5723 118.265 97.8862 118.265 99.7841C118.265 101.487 118.926 101.828 122.224 101.828C123.831 101.828 125.211 101.938 125.291 102.073C125.37 102.208 125.359 105.52 125.264 109.433C125.093 116.547 125.093 116.547 124.233 116.345C120.914 115.564 116.198 111.75 114.546 108.512C111.226 102.004 112.398 94.8898 117.65 89.673C119.707 87.6295 119.207 87.5067 116.464 89.3817C111.957 92.4616 109.039 98.0885 109.039 103.697C109.039 108.994 110.687 112.961 114.466 116.758C117.372 119.678 120.028 121.084 124.279 121.95C125.185 122.135 125.185 122.135 125.185 132.457C125.185 142.778 125.185 142.778 127.228 144.889C128.352 146.05 129.364 147 129.476 147C129.589 147 130.767 145.983 132.094 144.741C134.508 142.481 134.508 142.481 134.266 122.155C134.025 101.828 134.025 101.828 137.176 101.828C140.172 101.828 140.355 101.787 140.866 101.012C141.466 100.104 141.309 98.9055 140.484 98.0862C140.076 97.6803 139.19 97.5723 136.267 97.5723C133.828 97.5723 132.432 97.4384 132.171 97.1795C131.894 96.9045 131.776 95.1032 131.776 91.1745C131.776 86.1532 131.712 85.5054 131.173 85.0206C130.356 84.2857 128.952 84.3381 128.151 85.1335Z" fill="white"/>
</svg>
